# xmcd CD database file
# Copyright (C) 1993-1998 Ti Kan
#
# Track frame offsets:
#	150
#	12095
#	24420
#	39387
#	54947
#	67702
#	84722
#	97730
#	121955
#	134957
#
# Disc length: 2050 seconds
#
# Revision: 1
# Processed by: cddbd v1.4b41PL1 Copyright (c) Steve Scherf et al.
# Submitted via: CDValet v3.31 - Copyright (c) 1997 Greg Leichner
#
DISCID=7408000a
DTITLE=Will LeBlanc - Relentless Pursuit...
DYEAR=1900
DGENRE=
TTITLE0=Let It Swing
TTITLE1=Deaux-De-Deaux
TTITLE2=I Don't Drink
TTITLE3=Memory Lane
TTITLE4=I've Been Down This Road Before
TTITLE5=The Jury's Out
TTITLE6=I've Got A Job
TTITLE7=High Tide
TTITLE8=Another Cup Of Coffee
TTITLE9=Relentless Pursuit
EXTD=
EXTT0=
EXTT1=
EXTT2=
EXTT3=
EXTT4=
EXTT5=
EXTT6=
EXTT7=
EXTT8=
EXTT9=
PLAYORDER=
